<svg width="20.000000" height="20.000000" viewBox="0 0 20 20" fill="none" xmlns="http://www.w3.org/2000/svg" xmlns:xlink="http://www.w3.org/1999/xlink">
	<desc>
			Created with Pixso.
	</desc>
	<defs/>
	<path id="Oval" d="M20 10C20 15.52 15.52 20 10 20C4.47 20 0 15.52 0 10C0 4.47 4.47 0 10 0C15.52 0 20 4.47 20 10ZM17.79 8.19C17.93 8.78 18 9.38 18 10C18 10.61 17.93 11.21 17.79 11.8C17.69 12.24 17.55 12.68 17.37 13.11C17.18 13.55 16.96 13.97 16.7 14.36C16.4 14.82 16.05 15.25 15.65 15.65C15.25 16.05 14.82 16.4 14.36 16.7C13.97 16.96 13.55 17.18 13.11 17.37C12.68 17.55 12.24 17.69 11.8 17.79C11.21 17.93 10.61 18 10 18C9.38 18 8.78 17.93 8.19 17.79C7.75 17.69 7.31 17.55 6.88 17.37C6.44 17.18 6.02 16.96 5.63 16.7C5.17 16.4 4.74 16.05 4.34 15.65C3.94 15.25 3.59 14.82 3.29 14.36C3.03 13.97 2.81 13.55 2.62 13.11C2.44 12.68 2.3 12.24 2.2 11.8C2.06 11.21 2 10.61 2 10C2 9.38 2.06 8.78 2.2 8.19C2.3 7.75 2.44 7.31 2.62 6.88C2.81 6.44 3.03 6.02 3.29 5.63C3.59 5.17 3.94 4.74 4.34 4.34C4.74 3.94 5.17 3.59 5.63 3.29C6.02 3.03 6.44 2.81 6.88 2.62C7.31 2.44 7.75 2.3 8.19 2.2C8.78 2.06 9.38 2 10 2C10.61 2 11.21 2.06 11.8 2.2C12.24 2.3 12.68 2.44 13.11 2.62C13.55 2.81 13.97 3.03 14.36 3.29C14.82 3.59 15.25 3.94 15.65 4.34C16.05 4.74 16.4 5.17 16.7 5.63C16.96 6.02 17.18 6.44 17.37 6.88C17.55 7.31 17.69 7.75 17.79 8.19Z" fill="#FFFFFF" fill-opacity="1.000000" fill-rule="evenodd"/>
</svg>
